<mxfile host="app.diagrams.net" modified="2024-05-03T19:10:18.027Z" agent="Mozilla/5.0 (Macintosh; Intel Mac OS X 10_15_7) AppleWebKit/537.36 (KHTML, like Gecko) Chrome/123.0.0.0 Safari/537.36 OPR/109.0.0.0" etag="0g67uNrzMp7zTYYf5ua-" version="24.2.5" type="device">
  <diagram name="PÃ¡gina-1" id="GKcQqyCfQ1V4mNrMHVXt">
    <mxGraphModel dx="2815" dy="1592" grid="1" gridSize="10" guides="1" tooltips="1" connect="1" arrows="1" fold="1" page="1" pageScale="1" pageWidth="827" pageHeight="1169" math="0" shadow="0">
      <root>
        <mxCell id="0" />
        <mxCell id="1" parent="0" />
        <mxCell id="48W_m3RGSCvSOmZZA0Iu-11" style="rounded=0;orthogonalLoop=1;jettySize=auto;html=1;endArrow=none;endFill=0;strokeWidth=1;" edge="1" parent="1" source="48W_m3RGSCvSOmZZA0Iu-2" target="48W_m3RGSCvSOmZZA0Iu-9">
          <mxGeometry relative="1" as="geometry" />
        </mxCell>
        <mxCell id="48W_m3RGSCvSOmZZA0Iu-12" style="edgeStyle=none;rounded=0;orthogonalLoop=1;jettySize=auto;html=1;strokeColor=default;strokeWidth=1;align=center;verticalAlign=middle;fontFamily=Helvetica;fontSize=11;fontColor=default;labelBackgroundColor=default;endArrow=none;endFill=0;" edge="1" parent="1" source="48W_m3RGSCvSOmZZA0Iu-2" target="48W_m3RGSCvSOmZZA0Iu-8">
          <mxGeometry relative="1" as="geometry" />
        </mxCell>
        <mxCell id="48W_m3RGSCvSOmZZA0Iu-13" style="edgeStyle=none;rounded=0;orthogonalLoop=1;jettySize=auto;html=1;strokeColor=default;strokeWidth=1;align=center;verticalAlign=middle;fontFamily=Helvetica;fontSize=11;fontColor=default;labelBackgroundColor=default;endArrow=none;endFill=0;" edge="1" parent="1" source="48W_m3RGSCvSOmZZA0Iu-2" target="48W_m3RGSCvSOmZZA0Iu-6">
          <mxGeometry relative="1" as="geometry" />
        </mxCell>
        <mxCell id="48W_m3RGSCvSOmZZA0Iu-14" style="edgeStyle=none;rounded=0;orthogonalLoop=1;jettySize=auto;html=1;strokeColor=default;strokeWidth=1;align=center;verticalAlign=middle;fontFamily=Helvetica;fontSize=11;fontColor=default;labelBackgroundColor=default;endArrow=none;endFill=0;" edge="1" parent="1" source="48W_m3RGSCvSOmZZA0Iu-2" target="48W_m3RGSCvSOmZZA0Iu-7">
          <mxGeometry relative="1" as="geometry" />
        </mxCell>
        <mxCell id="48W_m3RGSCvSOmZZA0Iu-16" style="edgeStyle=none;rounded=0;orthogonalLoop=1;jettySize=auto;html=1;strokeColor=default;strokeWidth=1;align=center;verticalAlign=middle;fontFamily=Helvetica;fontSize=11;fontColor=default;labelBackgroundColor=default;endArrow=none;endFill=0;" edge="1" parent="1" source="48W_m3RGSCvSOmZZA0Iu-2" target="48W_m3RGSCvSOmZZA0Iu-15">
          <mxGeometry relative="1" as="geometry" />
        </mxCell>
        <mxCell id="48W_m3RGSCvSOmZZA0Iu-88" style="edgeStyle=none;rounded=0;orthogonalLoop=1;jettySize=auto;html=1;entryX=0;entryY=0.5;entryDx=0;entryDy=0;strokeColor=default;strokeWidth=1;align=center;verticalAlign=middle;fontFamily=Helvetica;fontSize=11;fontColor=default;labelBackgroundColor=default;endArrow=none;endFill=0;" edge="1" parent="1" source="48W_m3RGSCvSOmZZA0Iu-2" target="48W_m3RGSCvSOmZZA0Iu-33">
          <mxGeometry relative="1" as="geometry" />
        </mxCell>
        <mxCell id="48W_m3RGSCvSOmZZA0Iu-2" value="Producto" style="rounded=0;whiteSpace=wrap;html=1;fillColor=#ffff88;strokeColor=#36393d;fontSize=13;fontStyle=1" vertex="1" parent="1">
          <mxGeometry x="630" y="580" width="120" height="40" as="geometry" />
        </mxCell>
        <mxCell id="48W_m3RGSCvSOmZZA0Iu-17" style="edgeStyle=none;rounded=0;orthogonalLoop=1;jettySize=auto;html=1;strokeColor=default;strokeWidth=1;align=center;verticalAlign=middle;fontFamily=Helvetica;fontSize=11;fontColor=default;labelBackgroundColor=default;endArrow=none;endFill=0;" edge="1" parent="1" source="48W_m3RGSCvSOmZZA0Iu-5" target="48W_m3RGSCvSOmZZA0Iu-15">
          <mxGeometry relative="1" as="geometry">
            <Array as="points">
              <mxPoint x="240" y="598" />
            </Array>
          </mxGeometry>
        </mxCell>
        <mxCell id="48W_m3RGSCvSOmZZA0Iu-25" style="edgeStyle=none;rounded=0;orthogonalLoop=1;jettySize=auto;html=1;strokeColor=default;strokeWidth=1;align=center;verticalAlign=middle;fontFamily=Helvetica;fontSize=11;fontColor=default;labelBackgroundColor=default;endArrow=none;endFill=0;" edge="1" parent="1" source="48W_m3RGSCvSOmZZA0Iu-5" target="48W_m3RGSCvSOmZZA0Iu-18">
          <mxGeometry relative="1" as="geometry" />
        </mxCell>
        <mxCell id="48W_m3RGSCvSOmZZA0Iu-26" style="edgeStyle=none;rounded=0;orthogonalLoop=1;jettySize=auto;html=1;strokeColor=default;strokeWidth=1;align=center;verticalAlign=middle;fontFamily=Helvetica;fontSize=11;fontColor=default;labelBackgroundColor=default;endArrow=none;endFill=0;" edge="1" parent="1" source="48W_m3RGSCvSOmZZA0Iu-5" target="48W_m3RGSCvSOmZZA0Iu-19">
          <mxGeometry relative="1" as="geometry">
            <mxPoint x="80" y="119" as="targetPoint" />
          </mxGeometry>
        </mxCell>
        <mxCell id="48W_m3RGSCvSOmZZA0Iu-27" style="edgeStyle=none;rounded=0;orthogonalLoop=1;jettySize=auto;html=1;strokeColor=default;strokeWidth=1;align=center;verticalAlign=middle;fontFamily=Helvetica;fontSize=11;fontColor=default;labelBackgroundColor=default;endArrow=none;endFill=0;" edge="1" parent="1" source="48W_m3RGSCvSOmZZA0Iu-5" target="48W_m3RGSCvSOmZZA0Iu-20">
          <mxGeometry relative="1" as="geometry" />
        </mxCell>
        <mxCell id="48W_m3RGSCvSOmZZA0Iu-28" style="edgeStyle=none;rounded=0;orthogonalLoop=1;jettySize=auto;html=1;strokeColor=default;strokeWidth=1;align=center;verticalAlign=middle;fontFamily=Helvetica;fontSize=11;fontColor=default;labelBackgroundColor=default;endArrow=none;endFill=0;" edge="1" parent="1" source="48W_m3RGSCvSOmZZA0Iu-5" target="48W_m3RGSCvSOmZZA0Iu-21">
          <mxGeometry relative="1" as="geometry" />
        </mxCell>
        <mxCell id="48W_m3RGSCvSOmZZA0Iu-5" value="Detalle" style="rounded=0;whiteSpace=wrap;html=1;fillColor=#ffff88;strokeColor=#36393d;fontSize=13;fontStyle=1" vertex="1" parent="1">
          <mxGeometry x="180" y="140" width="120" height="40" as="geometry" />
        </mxCell>
        <mxCell id="48W_m3RGSCvSOmZZA0Iu-6" value="nombre" style="ellipse;whiteSpace=wrap;html=1;fillColor=#cce5ff;strokeColor=#36393d;" vertex="1" parent="1">
          <mxGeometry x="681" y="450" width="120" height="35" as="geometry" />
        </mxCell>
        <mxCell id="48W_m3RGSCvSOmZZA0Iu-7" value="precio_unitario" style="ellipse;whiteSpace=wrap;html=1;fillColor=#cce5ff;strokeColor=#36393d;" vertex="1" parent="1">
          <mxGeometry x="820" y="450" width="120" height="35" as="geometry" />
        </mxCell>
        <mxCell id="48W_m3RGSCvSOmZZA0Iu-8" value="stock&lt;span style=&quot;color: rgba(0, 0, 0, 0); font-family: monospace; font-size: 0px; text-align: start; text-wrap: nowrap;&quot;&gt;%3CmxGraphModel%3E%3Croot%3E%3CmxCell%20id%3D%220%22%2F%3E%3CmxCell%20id%3D%221%22%20parent%3D%220%22%2F%3E%3CmxCell%20id%3D%222%22%20value%3D%22nombre%22%20style%3D%22ellipse%3BwhiteSpace%3Dwrap%3Bhtml%3D1%3B%22%20vertex%3D%221%22%20parent%3D%221%22%3E%3CmxGeometry%20x%3D%22500%22%20y%3D%22155%22%20width%3D%22120%22%20height%3D%2235%22%20as%3D%22geometry%22%2F%3E%3C%2FmxCell%3E%3C%2Froot%3E%3C%2FmxGraphModel%3E&lt;/span&gt;" style="ellipse;whiteSpace=wrap;html=1;fillColor=#cce5ff;strokeColor=#36393d;" vertex="1" parent="1">
          <mxGeometry x="545.5" y="450" width="120" height="35" as="geometry" />
        </mxCell>
        <mxCell id="48W_m3RGSCvSOmZZA0Iu-9" value="&lt;u&gt;id_producto&lt;/u&gt;" style="ellipse;whiteSpace=wrap;html=1;fillColor=#cce5ff;strokeColor=#36393d;" vertex="1" parent="1">
          <mxGeometry x="410" y="450" width="120" height="35" as="geometry" />
        </mxCell>
        <mxCell id="48W_m3RGSCvSOmZZA0Iu-15" value="Compuesto&amp;nbsp; por un" style="rhombus;whiteSpace=wrap;html=1;fontFamily=Helvetica;fontSize=11;fontColor=default;labelBackgroundColor=none;strokeColor=#36393d;align=center;verticalAlign=middle;fillColor=#d1d1d1;labelBorderColor=none;" vertex="1" parent="1">
          <mxGeometry x="420" y="557.5" width="80" height="80" as="geometry" />
        </mxCell>
        <mxCell id="48W_m3RGSCvSOmZZA0Iu-18" value="&lt;u&gt;id_detalle&lt;/u&gt;" style="ellipse;whiteSpace=wrap;html=1;fillColor=#cce5ff;strokeColor=#36393d;" vertex="1" parent="1">
          <mxGeometry x="180" y="40" width="120" height="35" as="geometry" />
        </mxCell>
        <mxCell id="48W_m3RGSCvSOmZZA0Iu-19" value="precio_calculado" style="ellipse;whiteSpace=wrap;html=1;fillColor=#cce5ff;strokeColor=#36393d;" vertex="1" parent="1">
          <mxGeometry x="20" y="101.25" width="120" height="35" as="geometry" />
        </mxCell>
        <mxCell id="48W_m3RGSCvSOmZZA0Iu-20" value="cantidad" style="ellipse;whiteSpace=wrap;html=1;fillColor=#cce5ff;strokeColor=#36393d;" vertex="1" parent="1">
          <mxGeometry x="20" y="183.75" width="120" height="35" as="geometry" />
        </mxCell>
        <mxCell id="48W_m3RGSCvSOmZZA0Iu-29" style="edgeStyle=none;rounded=0;orthogonalLoop=1;jettySize=auto;html=1;strokeColor=default;strokeWidth=1;align=center;verticalAlign=middle;fontFamily=Helvetica;fontSize=11;fontColor=default;labelBackgroundColor=default;endArrow=none;endFill=0;" edge="1" parent="1" source="48W_m3RGSCvSOmZZA0Iu-21" target="48W_m3RGSCvSOmZZA0Iu-22">
          <mxGeometry relative="1" as="geometry" />
        </mxCell>
        <mxCell id="48W_m3RGSCvSOmZZA0Iu-21" value="Compone" style="rhombus;whiteSpace=wrap;html=1;fontFamily=Helvetica;fontSize=11;labelBackgroundColor=none;fillColor=#d1d1d1;strokeColor=#36393d;labelBorderColor=none;" vertex="1" parent="1">
          <mxGeometry x="420" y="120" width="80" height="80" as="geometry" />
        </mxCell>
        <mxCell id="48W_m3RGSCvSOmZZA0Iu-30" style="edgeStyle=none;rounded=0;orthogonalLoop=1;jettySize=auto;html=1;strokeColor=default;strokeWidth=1;align=center;verticalAlign=middle;fontFamily=Helvetica;fontSize=11;fontColor=default;labelBackgroundColor=default;endArrow=none;endFill=0;" edge="1" parent="1" source="48W_m3RGSCvSOmZZA0Iu-22" target="48W_m3RGSCvSOmZZA0Iu-23">
          <mxGeometry relative="1" as="geometry" />
        </mxCell>
        <mxCell id="48W_m3RGSCvSOmZZA0Iu-51" style="edgeStyle=none;rounded=0;orthogonalLoop=1;jettySize=auto;html=1;entryX=0;entryY=0.5;entryDx=0;entryDy=0;strokeColor=default;strokeWidth=1;align=center;verticalAlign=middle;fontFamily=Helvetica;fontSize=11;fontColor=default;labelBackgroundColor=default;endArrow=none;endFill=0;" edge="1" parent="1" source="48W_m3RGSCvSOmZZA0Iu-22" target="48W_m3RGSCvSOmZZA0Iu-47">
          <mxGeometry relative="1" as="geometry">
            <Array as="points">
              <mxPoint x="680" y="360" />
            </Array>
          </mxGeometry>
        </mxCell>
        <mxCell id="48W_m3RGSCvSOmZZA0Iu-55" style="edgeStyle=none;rounded=0;orthogonalLoop=1;jettySize=auto;html=1;strokeColor=default;strokeWidth=1;align=center;verticalAlign=middle;fontFamily=Helvetica;fontSize=11;fontColor=default;labelBackgroundColor=default;endArrow=none;endFill=0;" edge="1" parent="1" source="48W_m3RGSCvSOmZZA0Iu-22" target="48W_m3RGSCvSOmZZA0Iu-52">
          <mxGeometry relative="1" as="geometry" />
        </mxCell>
        <mxCell id="48W_m3RGSCvSOmZZA0Iu-56" style="edgeStyle=none;rounded=0;orthogonalLoop=1;jettySize=auto;html=1;strokeColor=default;strokeWidth=1;align=center;verticalAlign=middle;fontFamily=Helvetica;fontSize=11;fontColor=default;labelBackgroundColor=default;endArrow=none;endFill=0;" edge="1" parent="1" source="48W_m3RGSCvSOmZZA0Iu-22" target="48W_m3RGSCvSOmZZA0Iu-53">
          <mxGeometry relative="1" as="geometry" />
        </mxCell>
        <mxCell id="48W_m3RGSCvSOmZZA0Iu-57" style="edgeStyle=none;rounded=0;orthogonalLoop=1;jettySize=auto;html=1;strokeColor=default;strokeWidth=1;align=center;verticalAlign=middle;fontFamily=Helvetica;fontSize=11;fontColor=default;labelBackgroundColor=default;endArrow=none;endFill=0;" edge="1" parent="1" source="48W_m3RGSCvSOmZZA0Iu-22" target="48W_m3RGSCvSOmZZA0Iu-54">
          <mxGeometry relative="1" as="geometry" />
        </mxCell>
        <mxCell id="48W_m3RGSCvSOmZZA0Iu-59" style="edgeStyle=none;rounded=0;orthogonalLoop=1;jettySize=auto;html=1;strokeColor=default;strokeWidth=1;align=center;verticalAlign=middle;fontFamily=Helvetica;fontSize=11;fontColor=default;labelBackgroundColor=default;endArrow=none;endFill=0;" edge="1" parent="1" source="48W_m3RGSCvSOmZZA0Iu-22" target="48W_m3RGSCvSOmZZA0Iu-58">
          <mxGeometry relative="1" as="geometry" />
        </mxCell>
        <mxCell id="48W_m3RGSCvSOmZZA0Iu-22" value="Compra" style="rounded=0;whiteSpace=wrap;html=1;fillColor=#ffff88;strokeColor=#36393d;fontSize=13;fontStyle=1" vertex="1" parent="1">
          <mxGeometry x="620.5" y="140" width="120" height="40" as="geometry" />
        </mxCell>
        <mxCell id="48W_m3RGSCvSOmZZA0Iu-31" style="edgeStyle=none;rounded=0;orthogonalLoop=1;jettySize=auto;html=1;strokeColor=default;strokeWidth=1;align=center;verticalAlign=middle;fontFamily=Helvetica;fontSize=11;fontColor=default;labelBackgroundColor=default;endArrow=none;endFill=0;" edge="1" parent="1" source="48W_m3RGSCvSOmZZA0Iu-23" target="48W_m3RGSCvSOmZZA0Iu-24">
          <mxGeometry relative="1" as="geometry" />
        </mxCell>
        <mxCell id="48W_m3RGSCvSOmZZA0Iu-23" value="Es hecha&amp;nbsp;" style="rhombus;whiteSpace=wrap;html=1;fontFamily=Helvetica;fontSize=11;fontColor=default;labelBackgroundColor=none;strokeColor=#36393d;align=center;verticalAlign=middle;fillColor=#d1d1d1;labelBorderColor=none;" vertex="1" parent="1">
          <mxGeometry x="860" y="120" width="80" height="80" as="geometry" />
        </mxCell>
        <mxCell id="48W_m3RGSCvSOmZZA0Iu-70" style="edgeStyle=none;rounded=0;orthogonalLoop=1;jettySize=auto;html=1;strokeColor=default;strokeWidth=1;align=center;verticalAlign=middle;fontFamily=Helvetica;fontSize=11;fontColor=default;labelBackgroundColor=default;endArrow=none;endFill=0;" edge="1" parent="1" source="48W_m3RGSCvSOmZZA0Iu-24" target="48W_m3RGSCvSOmZZA0Iu-60">
          <mxGeometry relative="1" as="geometry" />
        </mxCell>
        <mxCell id="48W_m3RGSCvSOmZZA0Iu-72" style="edgeStyle=none;rounded=0;orthogonalLoop=1;jettySize=auto;html=1;strokeColor=default;strokeWidth=1;align=center;verticalAlign=middle;fontFamily=Helvetica;fontSize=11;fontColor=default;labelBackgroundColor=default;endArrow=none;endFill=0;" edge="1" parent="1" source="48W_m3RGSCvSOmZZA0Iu-24" target="48W_m3RGSCvSOmZZA0Iu-71">
          <mxGeometry relative="1" as="geometry" />
        </mxCell>
        <mxCell id="48W_m3RGSCvSOmZZA0Iu-73" style="edgeStyle=none;rounded=0;orthogonalLoop=1;jettySize=auto;html=1;strokeColor=default;strokeWidth=1;align=center;verticalAlign=middle;fontFamily=Helvetica;fontSize=11;fontColor=default;labelBackgroundColor=default;endArrow=none;endFill=0;" edge="1" parent="1" source="48W_m3RGSCvSOmZZA0Iu-24" target="48W_m3RGSCvSOmZZA0Iu-61">
          <mxGeometry relative="1" as="geometry" />
        </mxCell>
        <mxCell id="48W_m3RGSCvSOmZZA0Iu-92" style="edgeStyle=none;rounded=0;orthogonalLoop=1;jettySize=auto;html=1;entryX=0;entryY=0.5;entryDx=0;entryDy=0;strokeColor=default;strokeWidth=1;align=center;verticalAlign=middle;fontFamily=Helvetica;fontSize=11;fontColor=default;labelBackgroundColor=default;endArrow=none;endFill=0;" edge="1" parent="1" source="48W_m3RGSCvSOmZZA0Iu-24" target="48W_m3RGSCvSOmZZA0Iu-91">
          <mxGeometry relative="1" as="geometry" />
        </mxCell>
        <mxCell id="48W_m3RGSCvSOmZZA0Iu-24" value="Cliente" style="rounded=0;whiteSpace=wrap;html=1;fillColor=#ffff88;strokeColor=#36393d;fontSize=13;fontStyle=1" vertex="1" parent="1">
          <mxGeometry x="1060.5" y="140" width="120" height="40" as="geometry" />
        </mxCell>
        <mxCell id="48W_m3RGSCvSOmZZA0Iu-39" style="edgeStyle=none;rounded=0;orthogonalLoop=1;jettySize=auto;html=1;entryX=0;entryY=0.5;entryDx=0;entryDy=0;strokeColor=default;strokeWidth=1;align=center;verticalAlign=middle;fontFamily=Helvetica;fontSize=11;fontColor=default;labelBackgroundColor=default;endArrow=none;endFill=0;" edge="1" parent="1" source="48W_m3RGSCvSOmZZA0Iu-32" target="48W_m3RGSCvSOmZZA0Iu-36">
          <mxGeometry relative="1" as="geometry" />
        </mxCell>
        <mxCell id="48W_m3RGSCvSOmZZA0Iu-40" style="edgeStyle=none;rounded=0;orthogonalLoop=1;jettySize=auto;html=1;strokeColor=default;strokeWidth=1;align=center;verticalAlign=middle;fontFamily=Helvetica;fontSize=11;fontColor=default;labelBackgroundColor=default;endArrow=none;endFill=0;" edge="1" parent="1" source="48W_m3RGSCvSOmZZA0Iu-32" target="48W_m3RGSCvSOmZZA0Iu-37">
          <mxGeometry relative="1" as="geometry" />
        </mxCell>
        <mxCell id="48W_m3RGSCvSOmZZA0Iu-41" style="edgeStyle=none;rounded=0;orthogonalLoop=1;jettySize=auto;html=1;entryX=0;entryY=0.5;entryDx=0;entryDy=0;strokeColor=default;strokeWidth=1;align=center;verticalAlign=middle;fontFamily=Helvetica;fontSize=11;fontColor=default;labelBackgroundColor=default;endArrow=none;endFill=0;" edge="1" parent="1" source="48W_m3RGSCvSOmZZA0Iu-32" target="48W_m3RGSCvSOmZZA0Iu-38">
          <mxGeometry relative="1" as="geometry" />
        </mxCell>
        <mxCell id="48W_m3RGSCvSOmZZA0Iu-32" value="Categoria" style="rounded=0;whiteSpace=wrap;html=1;fillColor=#ffff88;strokeColor=#36393d;fontSize=13;fontStyle=1" vertex="1" parent="1">
          <mxGeometry x="1060.5" y="580" width="120" height="40" as="geometry" />
        </mxCell>
        <mxCell id="48W_m3RGSCvSOmZZA0Iu-35" style="edgeStyle=none;rounded=0;orthogonalLoop=1;jettySize=auto;html=1;strokeColor=default;strokeWidth=1;align=center;verticalAlign=middle;fontFamily=Helvetica;fontSize=11;fontColor=default;labelBackgroundColor=default;endArrow=none;endFill=0;" edge="1" parent="1" source="48W_m3RGSCvSOmZZA0Iu-33" target="48W_m3RGSCvSOmZZA0Iu-32">
          <mxGeometry relative="1" as="geometry" />
        </mxCell>
        <mxCell id="48W_m3RGSCvSOmZZA0Iu-33" value="Es de tipo" style="rhombus;whiteSpace=wrap;html=1;fontFamily=Helvetica;fontSize=11;fontColor=default;labelBackgroundColor=none;strokeColor=#36393d;align=center;verticalAlign=middle;fillColor=#d1d1d1;labelBorderColor=none;" vertex="1" parent="1">
          <mxGeometry x="860" y="560" width="80" height="80" as="geometry" />
        </mxCell>
        <mxCell id="48W_m3RGSCvSOmZZA0Iu-36" value="&lt;u&gt;id_categoria&lt;/u&gt;" style="ellipse;whiteSpace=wrap;html=1;fillColor=#cce5ff;strokeColor=#36393d;" vertex="1" parent="1">
          <mxGeometry x="1270.5" y="520" width="120" height="35" as="geometry" />
        </mxCell>
        <mxCell id="48W_m3RGSCvSOmZZA0Iu-37" value="nombre" style="ellipse;whiteSpace=wrap;html=1;fillColor=#cce5ff;strokeColor=#36393d;" vertex="1" parent="1">
          <mxGeometry x="1270.5" y="580" width="120" height="35" as="geometry" />
        </mxCell>
        <mxCell id="48W_m3RGSCvSOmZZA0Iu-38" value="descripciÃ³n" style="ellipse;whiteSpace=wrap;html=1;fillColor=#cce5ff;strokeColor=#36393d;" vertex="1" parent="1">
          <mxGeometry x="1270.5" y="645" width="120" height="35" as="geometry" />
        </mxCell>
        <mxCell id="48W_m3RGSCvSOmZZA0Iu-42" style="edgeStyle=none;rounded=0;orthogonalLoop=1;jettySize=auto;html=1;entryX=0;entryY=0.5;entryDx=0;entryDy=0;strokeColor=default;strokeWidth=1;align=center;verticalAlign=middle;fontFamily=Helvetica;fontSize=11;fontColor=default;labelBackgroundColor=default;endArrow=none;endFill=0;" edge="1" parent="1" source="48W_m3RGSCvSOmZZA0Iu-45" target="48W_m3RGSCvSOmZZA0Iu-48">
          <mxGeometry relative="1" as="geometry" />
        </mxCell>
        <mxCell id="48W_m3RGSCvSOmZZA0Iu-43" style="edgeStyle=none;rounded=0;orthogonalLoop=1;jettySize=auto;html=1;strokeColor=default;strokeWidth=1;align=center;verticalAlign=middle;fontFamily=Helvetica;fontSize=11;fontColor=default;labelBackgroundColor=default;endArrow=none;endFill=0;" edge="1" parent="1" source="48W_m3RGSCvSOmZZA0Iu-45" target="48W_m3RGSCvSOmZZA0Iu-49">
          <mxGeometry relative="1" as="geometry" />
        </mxCell>
        <mxCell id="48W_m3RGSCvSOmZZA0Iu-45" value="Tipo_de_pago" style="rounded=0;whiteSpace=wrap;html=1;fillColor=#ffff88;strokeColor=#36393d;fontSize=13;fontStyle=1" vertex="1" parent="1">
          <mxGeometry x="1060.5" y="340" width="120" height="40" as="geometry" />
        </mxCell>
        <mxCell id="48W_m3RGSCvSOmZZA0Iu-46" style="edgeStyle=none;rounded=0;orthogonalLoop=1;jettySize=auto;html=1;strokeColor=default;strokeWidth=1;align=center;verticalAlign=middle;fontFamily=Helvetica;fontSize=11;fontColor=default;labelBackgroundColor=default;endArrow=none;endFill=0;" edge="1" parent="1" source="48W_m3RGSCvSOmZZA0Iu-47" target="48W_m3RGSCvSOmZZA0Iu-45">
          <mxGeometry relative="1" as="geometry" />
        </mxCell>
        <mxCell id="48W_m3RGSCvSOmZZA0Iu-47" value="Tiene" style="rhombus;whiteSpace=wrap;html=1;fontFamily=Helvetica;fontSize=11;fontColor=default;labelBackgroundColor=none;strokeColor=#36393d;align=center;verticalAlign=middle;fillColor=#d1d1d1;labelBorderColor=none;" vertex="1" parent="1">
          <mxGeometry x="860" y="320" width="80" height="80" as="geometry" />
        </mxCell>
        <mxCell id="48W_m3RGSCvSOmZZA0Iu-48" value="&lt;u&gt;id_tipo_pago&lt;/u&gt;" style="ellipse;whiteSpace=wrap;html=1;fillColor=#cce5ff;strokeColor=#36393d;" vertex="1" parent="1">
          <mxGeometry x="1270.5" y="310" width="120" height="35" as="geometry" />
        </mxCell>
        <mxCell id="48W_m3RGSCvSOmZZA0Iu-49" value="nombre" style="ellipse;whiteSpace=wrap;html=1;fillColor=#cce5ff;strokeColor=#36393d;" vertex="1" parent="1">
          <mxGeometry x="1270.5" y="380" width="120" height="35" as="geometry" />
        </mxCell>
        <mxCell id="48W_m3RGSCvSOmZZA0Iu-52" value="&lt;u&gt;id_compra&lt;/u&gt;" style="ellipse;whiteSpace=wrap;html=1;fillColor=#cce5ff;strokeColor=#36393d;" vertex="1" parent="1">
          <mxGeometry x="420" y="40" width="120" height="35" as="geometry" />
        </mxCell>
        <mxCell id="48W_m3RGSCvSOmZZA0Iu-53" value="total" style="ellipse;whiteSpace=wrap;html=1;fillColor=#cce5ff;strokeColor=#36393d;dashed=1;" vertex="1" parent="1">
          <mxGeometry x="556" y="40" width="120" height="35" as="geometry" />
        </mxCell>
        <mxCell id="48W_m3RGSCvSOmZZA0Iu-54" value="iva" style="ellipse;whiteSpace=wrap;html=1;fillColor=#cce5ff;strokeColor=#36393d;" vertex="1" parent="1">
          <mxGeometry x="696" y="40" width="120" height="35" as="geometry" />
        </mxCell>
        <mxCell id="48W_m3RGSCvSOmZZA0Iu-58" value="fecha" style="ellipse;whiteSpace=wrap;html=1;fillColor=#cce5ff;strokeColor=#36393d;" vertex="1" parent="1">
          <mxGeometry x="833" y="40" width="120" height="35" as="geometry" />
        </mxCell>
        <mxCell id="48W_m3RGSCvSOmZZA0Iu-60" value="&lt;u&gt;id_cliente&lt;/u&gt;" style="ellipse;whiteSpace=wrap;html=1;fillColor=#cce5ff;strokeColor=#36393d;" vertex="1" parent="1">
          <mxGeometry x="1060.5" y="45" width="120" height="35" as="geometry" />
        </mxCell>
        <mxCell id="48W_m3RGSCvSOmZZA0Iu-66" style="edgeStyle=none;rounded=0;orthogonalLoop=1;jettySize=auto;html=1;strokeColor=#36393d;strokeWidth=1;align=center;verticalAlign=middle;fontFamily=Helvetica;fontSize=11;fontColor=default;labelBackgroundColor=default;endArrow=none;endFill=0;fillColor=#cce5ff;" edge="1" parent="1" source="48W_m3RGSCvSOmZZA0Iu-61" target="48W_m3RGSCvSOmZZA0Iu-62">
          <mxGeometry relative="1" as="geometry" />
        </mxCell>
        <mxCell id="48W_m3RGSCvSOmZZA0Iu-67" style="edgeStyle=none;rounded=0;orthogonalLoop=1;jettySize=auto;html=1;strokeColor=#36393d;strokeWidth=1;align=center;verticalAlign=middle;fontFamily=Helvetica;fontSize=11;fontColor=default;labelBackgroundColor=default;endArrow=none;endFill=0;fillColor=#cce5ff;" edge="1" parent="1" source="48W_m3RGSCvSOmZZA0Iu-61" target="48W_m3RGSCvSOmZZA0Iu-63">
          <mxGeometry relative="1" as="geometry" />
        </mxCell>
        <mxCell id="48W_m3RGSCvSOmZZA0Iu-68" style="edgeStyle=none;rounded=0;orthogonalLoop=1;jettySize=auto;html=1;strokeColor=#36393d;strokeWidth=1;align=center;verticalAlign=middle;fontFamily=Helvetica;fontSize=11;fontColor=default;labelBackgroundColor=default;endArrow=none;endFill=0;fillColor=#cce5ff;" edge="1" parent="1" source="48W_m3RGSCvSOmZZA0Iu-61" target="48W_m3RGSCvSOmZZA0Iu-64">
          <mxGeometry relative="1" as="geometry" />
        </mxCell>
        <mxCell id="48W_m3RGSCvSOmZZA0Iu-69" style="edgeStyle=none;rounded=0;orthogonalLoop=1;jettySize=auto;html=1;strokeColor=#36393d;strokeWidth=1;align=center;verticalAlign=middle;fontFamily=Helvetica;fontSize=11;fontColor=default;labelBackgroundColor=default;endArrow=none;endFill=0;fillColor=#cce5ff;" edge="1" parent="1" source="48W_m3RGSCvSOmZZA0Iu-61" target="48W_m3RGSCvSOmZZA0Iu-65">
          <mxGeometry relative="1" as="geometry" />
        </mxCell>
        <mxCell id="48W_m3RGSCvSOmZZA0Iu-61" value="nombre" style="ellipse;whiteSpace=wrap;html=1;fillColor=#cce5ff;strokeColor=#36393d;" vertex="1" parent="1">
          <mxGeometry x="1270.5" y="142.5" width="120" height="35" as="geometry" />
        </mxCell>
        <mxCell id="48W_m3RGSCvSOmZZA0Iu-62" value="primer_nombre" style="ellipse;whiteSpace=wrap;html=1;fillColor=#cce5ff;strokeColor=#36393d;" vertex="1" parent="1">
          <mxGeometry x="1480" y="70" width="120" height="35" as="geometry" />
        </mxCell>
        <mxCell id="48W_m3RGSCvSOmZZA0Iu-63" value="segundo_nombre" style="ellipse;whiteSpace=wrap;html=1;fillColor=#cce5ff;strokeColor=#36393d;" vertex="1" parent="1">
          <mxGeometry x="1480" y="122.5" width="120" height="35" as="geometry" />
        </mxCell>
        <mxCell id="48W_m3RGSCvSOmZZA0Iu-64" value="primer_apellido" style="ellipse;whiteSpace=wrap;html=1;fillColor=#cce5ff;strokeColor=#36393d;" vertex="1" parent="1">
          <mxGeometry x="1480" y="172.5" width="120" height="35" as="geometry" />
        </mxCell>
        <mxCell id="48W_m3RGSCvSOmZZA0Iu-65" value="segundo_apellido" style="ellipse;whiteSpace=wrap;html=1;fillColor=#cce5ff;strokeColor=#36393d;" vertex="1" parent="1">
          <mxGeometry x="1480" y="222.5" width="120" height="35" as="geometry" />
        </mxCell>
        <mxCell id="48W_m3RGSCvSOmZZA0Iu-71" value="direcciÃ³n" style="ellipse;whiteSpace=wrap;html=1;fillColor=#cce5ff;strokeColor=#36393d;" vertex="1" parent="1">
          <mxGeometry x="1270.5" y="45" width="120" height="35" as="geometry" />
        </mxCell>
        <mxCell id="48W_m3RGSCvSOmZZA0Iu-75" value="&lt;b style=&quot;font-size: 20px;&quot;&gt;&lt;font style=&quot;font-size: 20px;&quot;&gt;n&lt;/font&gt;&lt;/b&gt;" style="text;html=1;align=center;verticalAlign=middle;resizable=0;points=[];autosize=1;strokeColor=none;fillColor=none;fontFamily=Helvetica;fontSize=20;fontColor=default;labelBackgroundColor=default;" vertex="1" parent="1">
          <mxGeometry x="744" y="566" width="40" height="40" as="geometry" />
        </mxCell>
        <mxCell id="48W_m3RGSCvSOmZZA0Iu-78" value="1" style="text;html=1;align=center;verticalAlign=middle;resizable=0;points=[];autosize=1;strokeColor=none;fillColor=none;fontFamily=Helvetica;fontSize=20;fontColor=default;labelBackgroundColor=default;" vertex="1" parent="1">
          <mxGeometry x="1030.5" y="597" width="30" height="40" as="geometry" />
        </mxCell>
        <mxCell id="48W_m3RGSCvSOmZZA0Iu-79" value="&lt;b style=&quot;font-size: 20px;&quot;&gt;&lt;font style=&quot;font-size: 20px;&quot;&gt;n&lt;/font&gt;&lt;/b&gt;" style="text;html=1;align=center;verticalAlign=middle;resizable=0;points=[];autosize=1;strokeColor=none;fillColor=none;fontFamily=Helvetica;fontSize=20;fontColor=default;labelBackgroundColor=default;" vertex="1" parent="1">
          <mxGeometry x="234" y="173.5" width="40" height="40" as="geometry" />
        </mxCell>
        <mxCell id="48W_m3RGSCvSOmZZA0Iu-80" value="1" style="text;html=1;align=center;verticalAlign=middle;resizable=0;points=[];autosize=1;strokeColor=none;fillColor=none;fontFamily=Helvetica;fontSize=20;fontColor=default;labelBackgroundColor=default;" vertex="1" parent="1">
          <mxGeometry x="600" y="597" width="30" height="40" as="geometry" />
        </mxCell>
        <mxCell id="48W_m3RGSCvSOmZZA0Iu-81" value="1" style="text;html=1;align=center;verticalAlign=middle;resizable=0;points=[];autosize=1;strokeColor=none;fillColor=none;fontFamily=Helvetica;fontSize=20;fontColor=default;labelBackgroundColor=default;" vertex="1" parent="1">
          <mxGeometry x="590.5" y="152.5" width="30" height="40" as="geometry" />
        </mxCell>
        <mxCell id="48W_m3RGSCvSOmZZA0Iu-82" value="&lt;b style=&quot;font-size: 20px;&quot;&gt;&lt;font style=&quot;font-size: 20px;&quot;&gt;n&lt;/font&gt;&lt;/b&gt;" style="text;html=1;align=center;verticalAlign=middle;resizable=0;points=[];autosize=1;strokeColor=none;fillColor=none;fontFamily=Helvetica;fontSize=20;fontColor=default;labelBackgroundColor=default;" vertex="1" parent="1">
          <mxGeometry x="291" y="127" width="40" height="40" as="geometry" />
        </mxCell>
        <mxCell id="48W_m3RGSCvSOmZZA0Iu-83" value="1" style="text;html=1;align=center;verticalAlign=middle;resizable=0;points=[];autosize=1;strokeColor=none;fillColor=none;fontFamily=Helvetica;fontSize=20;fontColor=default;labelBackgroundColor=default;" vertex="1" parent="1">
          <mxGeometry x="1032.5" y="152.5" width="30" height="40" as="geometry" />
        </mxCell>
        <mxCell id="48W_m3RGSCvSOmZZA0Iu-84" value="&lt;b style=&quot;font-size: 20px;&quot;&gt;&lt;font style=&quot;font-size: 20px;&quot;&gt;n&lt;/font&gt;&lt;/b&gt;" style="text;html=1;align=center;verticalAlign=middle;resizable=0;points=[];autosize=1;strokeColor=none;fillColor=none;fontFamily=Helvetica;fontSize=20;fontColor=default;labelBackgroundColor=default;" vertex="1" parent="1">
          <mxGeometry x="732" y="127" width="40" height="40" as="geometry" />
        </mxCell>
        <mxCell id="48W_m3RGSCvSOmZZA0Iu-85" value="1" style="text;html=1;align=center;verticalAlign=middle;resizable=0;points=[];autosize=1;strokeColor=none;fillColor=none;fontFamily=Helvetica;fontSize=20;fontColor=default;labelBackgroundColor=default;" vertex="1" parent="1">
          <mxGeometry x="1032.5" y="357" width="30" height="40" as="geometry" />
        </mxCell>
        <mxCell id="48W_m3RGSCvSOmZZA0Iu-86" value="&lt;b style=&quot;font-size: 20px;&quot;&gt;&lt;font style=&quot;font-size: 20px;&quot;&gt;n&lt;/font&gt;&lt;/b&gt;" style="text;html=1;align=center;verticalAlign=middle;resizable=0;points=[];autosize=1;strokeColor=none;fillColor=none;fontFamily=Helvetica;fontSize=20;fontColor=default;labelBackgroundColor=default;" vertex="1" parent="1">
          <mxGeometry x="670" y="172.5" width="40" height="40" as="geometry" />
        </mxCell>
        <mxCell id="48W_m3RGSCvSOmZZA0Iu-91" value="telefono" style="ellipse;whiteSpace=wrap;html=1;fillColor=#cce5ff;strokeColor=#36393d;" vertex="1" parent="1">
          <mxGeometry x="1270.5" y="230" width="120" height="35" as="geometry" />
        </mxCell>
      </root>
    </mxGraphModel>
  </diagram>
</mxfile>
